<?xml version="1.0" encoding="utf-8"?>
<!-- Generator: Adobe Illustrator 25.4.1, SVG Export Plug-In . SVG Version: 6.00 Build 0)  -->
<!DOCTYPE svg PUBLIC "-//W3C//DTD SVG 1.1//EN" "http://www.w3.org/Graphics/SVG/1.1/DTD/svg11.dtd" [
	<!ENTITY ns_extend "http://ns.adobe.com/Extensibility/1.0/">
	<!ENTITY ns_ai "http://ns.adobe.com/AdobeIllustrator/10.0/">
	<!ENTITY ns_graphs "http://ns.adobe.com/Graphs/1.0/">
	<!ENTITY ns_vars "http://ns.adobe.com/Variables/1.0/">
	<!ENTITY ns_imrep "http://ns.adobe.com/ImageReplacement/1.0/">
	<!ENTITY ns_sfw "http://ns.adobe.com/SaveForWeb/1.0/">
	<!ENTITY ns_custom "http://ns.adobe.com/GenericCustomNamespace/1.0/">
	<!ENTITY ns_adobe_xpath "http://ns.adobe.com/XPath/1.0/">
]>
<svg version="1.1" xmlns:x="&ns_extend;" xmlns:i="&ns_ai;" xmlns:graph="&ns_graphs;"
	 xmlns="http://www.w3.org/2000/svg" xmlns:xlink="http://www.w3.org/1999/xlink" x="0px" y="0px" width="750px" height="750px"
	 viewBox="0 0 750 750" enable-background="new 0 0 750 750" xml:space="preserve">
<metadata>
	<sfw  xmlns="&ns_sfw;">
		<slices></slices>
		<sliceSourceBounds  bottomLeftOrigin="true" height="10406.914" width="5730" x="-2000" y="-1364"></sliceSourceBounds>
	</sfw>
</metadata>
<g id="FILL-BACKGROUND">
	<rect fill="#FFFFFF" width="750" height="750"/>
</g>
<g id="N-DIMENSIONS">
</g>
<g id="N-TEXT">
</g>
<g id="_x32_D_x24_AG-DIAGRAM">
	<g id="POLYLINE_00000098212028326628294750000015731370749674833342_">
		<g>
			<g>
				
					<line fill="none" stroke="rgb(88, 107, 156)" stroke-width="3.25" stroke-linecap="round" stroke-linejoin="round" x1="149.169" y1="606.776" x2="151.169" y2="606.776"/>
				
					<line fill="none" stroke="rgb(88, 107, 156)" stroke-width="3.25" stroke-linecap="round" stroke-linejoin="round" stroke-dasharray="4.0427,7.0748" x1="158.244" y1="606.776" x2="577.172" y2="606.776"/>
				
					<line fill="none" stroke="rgb(88, 107, 156)" stroke-width="3.25" stroke-linecap="round" stroke-linejoin="round" x1="580.709" y1="606.776" x2="582.709" y2="606.776"/>
			</g>
		</g>
	</g>
</g>
<g id="_x32_D_x24_AG-DETAILS-DIAGRAM">
</g>
<g id="_x32_D_x24_AG-DETAILS">
</g>
<g id="_x32_D_x24_AG-ANIMALS">
	<g id="POLYLINE_00000011746788670987037280000005814257697933534886_">
		
			<path fill="none" stroke="rgb(88, 107, 156)" stroke-width="2.75" stroke-linecap="round" stroke-linejoin="round" stroke-miterlimit="10" d="
			M230.366,357.643c-1.015,1.157-2.276,2.227-3.179,3.479c-1.082,1.461-1.843,3.158-2.539,4.83
			c-1.444,3.405-3.261,8.998-5.053,12.205c-0.285,0.478-0.587,0.967-1.009,1.336l-0.027,0.022l-0.027,0.021l-0.026,0.02
			l-0.026,0.019l-0.026,0.018l-0.026,0.017l-0.026,0.017l-0.026,0.016l-0.026,0.015l-0.026,0.014l-0.026,0.013l-0.026,0.012
			l-0.026,0.011l-0.025,0.01l-0.025,0.009l-0.025,0.008l-0.025,0.007l-0.025,0.006l-0.025,0.005l-0.025,0.004l-0.025,0.003
			l-0.025,0.002l-0.025,0.001l-0.024,0l-0.024-0.001l-0.024-0.002l-0.024-0.003l-0.024-0.004l-0.011-0.002l-0.011-0.003
			l-0.011-0.003l-0.011-0.003l-0.011-0.003l-0.011-0.004l-0.011-0.004l-0.011-0.004l-0.011-0.004
			c-0.387-0.163-0.665-0.626-0.884-0.97c-0.312-0.501-0.621-1.15-1.013-1.592c-0.083-0.089-0.176-0.174-0.286-0.229l-0.01-0.005
			l-0.01-0.004l-0.01-0.004l-0.01-0.004l-0.01-0.004l-0.01-0.004l-0.01-0.003l-0.01-0.003l-0.01-0.003l-0.01-0.003l-0.01-0.003
			l-0.01-0.002l-0.01-0.002l-0.01-0.002l-0.01-0.002l-0.01-0.001l-0.01-0.001l-0.01-0.001l-0.01-0.001l-0.01,0l-0.01,0l-0.01,0
			l-0.014,0.001l-0.014,0.001l-0.014,0.002l-0.015,0.002l-0.015,0.003l-0.015,0.003l-0.015,0.004l-0.015,0.004l-0.015,0.005
			l-0.015,0.005l-0.015,0.006l-0.015,0.006l-0.015,0.007l-0.015,0.007l-0.015,0.007l-0.015,0.008l-0.015,0.008l-0.015,0.009
			l-0.015,0.009l-0.015,0.01l-0.015,0.01l-0.015,0.011l-0.015,0.011c-0.192,0.148-0.342,0.345-0.481,0.542
			c-0.809,1.219-1.489,2.893-2.275,4.127c-0.27,0.427-0.565,0.851-0.928,1.205c-0.198,0.19-0.42,0.362-0.676,0.466l-0.023,0.009
			c-0.353,0.139-0.751,0.102-1.102-0.025c-0.591-0.214-1.102-0.606-1.592-0.99l-1.108-0.904c-0.576-0.446-1.226-0.963-1.966-1.069
			l-0.04-0.004l-0.04-0.003l-0.04-0.002l-0.04-0.001l-0.04,0l-0.04,0.001l-0.04,0.002l-0.04,0.003l-0.039,0.004l-0.039,0.005
			l-0.039,0.006l-0.039,0.007l-0.039,0.008l-0.039,0.009l-0.039,0.01l-0.039,0.011l-0.039,0.012l-0.039,0.012l-0.039,0.013
			l-0.039,0.014l-0.038,0.015l-0.038,0.016l-0.038,0.017l-0.038,0.018l-0.038,0.019l-0.038,0.02l-0.038,0.021l-0.038,0.022
			l-0.038,0.023l-0.038,0.024c-0.479,0.31-0.855,0.755-1.187,1.213c-0.607,0.852-1.092,1.812-1.54,2.756
			c-1.716,3.74-3.462,8.624-5.174,12.367c-1.609,3.601-3.557,7.134-5.775,10.396c-1.849,2.675-3.848,5.347-6.303,7.498
			c-0.709,0.589-1.512,1.222-2.415,1.46l-0.04,0.009l-0.039,0.008l-0.039,0.007l-0.038,0.007l-0.038,0.006l-0.038,0.005
			l-0.037,0.004l-0.037,0.003l-0.036,0.002l-0.036,0.001l-0.035,0l-0.035,0l-0.035-0.001l-0.034-0.002l-0.034-0.003l-0.033-0.004
			l-0.033-0.005l-0.032-0.006l-0.032-0.007l-0.032-0.008l-0.031-0.009l-0.031-0.01l-0.03-0.01l-0.03-0.011l-0.029-0.012
			l-0.029-0.013l-0.028-0.014l-0.028-0.015l-0.027-0.016l-0.027-0.017l-0.027-0.018l-0.026-0.019l-0.026-0.02l-0.025-0.021
			l-0.025-0.022l-0.024-0.023l-0.024-0.024l-0.023-0.025l-0.023-0.026l-0.022-0.027l-0.022-0.028l-0.021-0.029l-0.014-0.02
			l-0.014-0.021c-0.158-0.244-0.247-0.527-0.315-0.807c-0.301-1.328-0.218-3.477-0.269-4.849c-0.03-0.794-0.067-1.613-0.25-2.388
			c-0.083-0.334-0.195-0.672-0.399-0.953l-0.016-0.021l-0.016-0.021l-0.016-0.02l-0.016-0.02l-0.017-0.019l-0.017-0.019
			l-0.017-0.018l-0.017-0.018l-0.018-0.017l-0.018-0.017l-0.018-0.016l-0.019-0.016l-0.019-0.015l-0.019-0.015l-0.019-0.014
			l-0.02-0.014l-0.02-0.013l-0.02-0.013l-0.02-0.012l-0.021-0.012l-0.023-0.012l-0.023-0.012l-0.024-0.011l-0.024-0.01l-0.024-0.01
			l-0.025-0.009l-0.025-0.009l-0.025-0.008l-0.026-0.007l-0.026-0.007l-0.026-0.006l-0.027-0.006l-0.027-0.005l-0.027-0.005
			l-0.028-0.004l-0.028-0.003l-0.028-0.003l-0.028-0.002l-0.029-0.002l-0.029-0.001l-0.029-0.001
			c-0.358-0.004-0.711,0.094-1.046,0.211c-0.633,0.227-1.25,0.555-1.841,0.876c-1.671,0.907-3.656,2.228-5.509,2.678
			c-0.586,0.135-1.216,0.186-1.794-0.01l-0.04-0.014l-0.039-0.015l-0.039-0.015l-0.039-0.016l-0.038-0.017l-0.038-0.018
			l-0.038-0.018l-0.038-0.019l-0.037-0.02c-0.593-0.322-1.029-0.866-1.377-1.433c-1.136-1.907-1.733-4.681-2.382-6.801
			c-0.278-0.911-0.574-1.86-1.01-2.709c-0.203-0.386-0.441-0.767-0.771-1.058l-0.027-0.023l-0.027-0.022l-0.027-0.022
			c-0.641-0.512-1.52-0.404-2.269-0.243c-0.962,0.19-2.111,0.613-3.031,0.082c-0.394-0.234-0.69-0.601-0.939-0.979
			c-0.61-0.952-1.014-2.083-1.411-3.139c-0.644-1.688-1.208-3.608-2.283-5.076c-0.304-0.4-0.67-0.769-1.123-0.996
			c-0.464-0.235-0.994-0.309-1.51-0.292c-1.81,0.079-3.581,0.989-5.371,1.2c-0.51,0.058-1.038,0.056-1.533-0.093
			c-0.517-0.154-0.976-0.465-1.362-0.837c-0.46-0.443-0.836-0.971-1.17-1.513c-1.028-1.632-2.299-4.85-3.128-6.619
			c-1.093-2.367-2.353-4.707-4.041-6.706c-3.945-4.641-9.423-7.658-14.817-10.313c-3.025-1.423-7.636-3.58-10.508-5.188
			c-1.32-0.698-2.708-1.35-4.136-1.793c-1.608-0.509-3.35-0.771-5.021-0.984c-3.709-0.483-8.281-0.806-11.83-1.978
			c-1.222-0.397-2.429-0.907-3.507-1.612c-1.194-0.782-2.249-1.799-3.031-2.995c-0.643-0.996-1.137-2.15-1.121-3.354
			c0.01-0.429,0.096-0.861,0.287-1.247c0.184-0.375,0.464-0.696,0.783-0.963c0.421-0.351,0.911-0.62,1.406-0.851
			c1.699-0.772,3.844-1.306,5.577-2.004c1.882-0.715,3.595-1.825,5.183-3.049c2.33-1.783,4.726-3.953,7.351-5.287
			c3.199-1.65,6.862-2.134,10.42-2.254c2.773-0.084,5.635,0.098,8.396,0.371c3.096,0.32,7.699,0.968,10.783,0.835
			c2.697-0.064,6.337-0.721,9.027-1.003c2.128-0.222,4.31-0.32,6.442-0.099c1.79,0.181,3.574,0.597,5.246,1.264
			c3.958,1.56,8.064,4.56,11.646,6.85c1.686,1.069,3.449,2.134,5.311,2.866c1.265,0.497,2.626,0.81,3.991,0.717
			c2.389-0.133,4.809-1.359,6.999-2.206c1.188-0.462,2.419-0.873,3.671-1.112c0.97-0.189,1.977-0.271,2.965-0.285
			c6.006-0.032,12.157,1.899,18.149,2.092c1.711,0.057,3.443-0.093,5.106-0.505c2.298-0.522,5.293-1.889,7.492-2.79
			c1.52-0.615,3.102-1.17,4.71-1.503c2.01-0.417,4.097-0.531,6.146-0.521c6.393,0.026,13.444,1.481,19.841,1.341
			c4.126-0.053,8.151-0.879,12.06-2.168l8.484-2.845c2.916-0.934,5.954-1.778,8.966-2.329c4.709-0.891,10.697-1.291,15.51-1.693
			c2.762-0.242,5.963-0.515,8.675-1.028c2.27-0.396,5.684-1.433,7.93-2.049c1.999-0.537,4.078-0.957,6.14-1.15
			c4.238-0.387,8.665-0.089,12.905,0.219l19.566,1.8c6.353,0.508,12.947,0.605,19.305,0.184c10.683-0.714,22.518-2.637,33.132-4.247
			c15.381-2.482,31-5.611,45.806-10.494c5.743-1.872,11.686-4.116,17.242-6.5c5.743-2.407,15.136-7.068,20.818-9.862
			c5.249-2.604,10.706-5.279,14.975-9.371c3.463-3.301,6.198-7.321,8.555-11.464c1.962-3.47,3.697-7.2,5.187-10.897
			c1.748-4.283,3.724-10.258,5.45-14.556c2.115-5.304,4.966-10.573,7.797-15.534"/>
	</g>
	<g id="POLYLINE_00000181796336620291997480000006004141086080068757_">
		
			<path fill="none" stroke="rgb(88, 107, 156)" stroke-width="2.75" stroke-linecap="round" stroke-linejoin="round" stroke-miterlimit="10" d="
			M652.641,201.276c-0.463,0.531-1.101,0.883-1.767,1.092c-1.026,0.32-2.127,0.348-3.189,0.226
			c-1.365-0.167-2.717-0.585-3.892-1.308c-0.992-0.611-1.835-1.459-2.455-2.444c-1.159-1.855-1.607-4.087-1.62-6.254
			c0.004-0.637,0.05-1.285,0.184-1.909c0.081-0.37,0.191-0.742,0.377-1.073c0.135-0.241,0.321-0.453,0.549-0.61
			c0.511-0.346,1.138-0.46,1.735-0.568c2.269-0.345,4.723-0.399,6.998-0.076c0.863,0.146,1.839,0.339,2.531,0.907
			c0.318,0.264,0.548,0.621,0.693,1.006c0.097,0.251,0.166,0.519,0.222,0.782c0.198,1.043,0.41,2.532,0.547,3.582
			c0.174,1.498,0.294,3.04,0.019,4.533C653.427,199.922,653.157,200.685,652.641,201.276z"/>
	</g>
	<g id="POLYLINE_00000128466201707440076120000009142430884193837704_">
		
			<path fill="none" stroke="rgb(88, 107, 156)" stroke-width="2.75" stroke-linecap="round" stroke-linejoin="round" stroke-miterlimit="10" d="
			M549.468,211.893c2.505,3.991,4.898,8.18,6.717,12.531c1.341,3.076,2.429,7.407,3.35,10.66c0.696,2.389,1.58,4.766,2.719,6.979
			c2.594,5.148,6.28,10.156,8.439,15.517c0.698,1.808,1.306,3.72,1.284,5.676c-0.017,1.056-0.299,2.154-1.054,2.928
			c-1.238,1.289-3.195,1.461-4.873,1.174c-2.433-0.406-5.439-1.701-7.783-2.504c-1.743-0.611-3.557-1.158-5.373-1.492
			c-2.492-0.458-5.108-0.586-7.64-0.633c-4.3-0.126-9.22,0.185-13.375-1.036c-1.541-0.447-3.057-1.099-4.31-2.118
			c-0.65-0.53-1.22-1.166-1.639-1.894c-0.524-0.902-0.823-1.921-1.001-2.944c-0.188-1.076-0.252-2.196-0.283-3.287
			c0.018-6.442-0.392-15.331-0.733-21.825c-0.153-3.303-0.162-6.695,0.527-9.942c0.602-2.913,1.647-5.758,2.998-8.406
			c1.398-2.72,3.156-5.281,5.28-7.485c5.211-5.365,12.322-8.33,19.123-11.133c9.139-3.747,18.777-7.299,28.756-7.531
			c2.663-0.046,5.366,0.171,7.945,0.861c3.363,0.858,7.109,2.88,10.242,4.368c2.155,1.025,4.429,1.896,6.783,2.324
			c2.891,0.549,5.89,0.538,8.791,0.067c4.324-0.727,9.035-2.456,13.349-3.236c4.801-0.9,9.75-1.159,14.628-1.043"/>
	</g>
	<g id="POLYLINE_00000181078513833672836850000013173294859180743047_">
		
			<path fill="none" stroke="rgb(88, 107, 156)" stroke-width="2.75" stroke-linecap="round" stroke-linejoin="round" stroke-miterlimit="10" d="
			M469.811,405.22c-2.563,7.978-4.099,16.558-5.477,24.817c-0.717,4.807-1.483,9.778-1.37,14.647
			c0.059,1.132,0.134,2.381,0.607,3.423l0.023,0.047l0.024,0.046l0.024,0.045l0.025,0.043l0.025,0.042l0.026,0.041l0.026,0.04
			l0.027,0.038l0.027,0.037l0.027,0.036l0.028,0.035l0.028,0.033l0.029,0.032c0.425,0.471,1.076,0.509,1.659,0.624
			c0.332,0.068,0.653,0.2,0.816,0.518l0.013,0.026l0.013,0.027l0.012,0.028l0.012,0.029l0.011,0.03l0.011,0.03l0.01,0.031
			l0.01,0.032l0.009,0.033l0.009,0.034l0.008,0.034l0.008,0.035c0.078,0.385,0.068,0.785,0.045,1.175
			c-0.122,1.897-1.197,6.342-1.562,8.259c-0.395,2.085-0.756,4.226-0.741,6.353c0.015,1.031,0.118,2.083,0.481,3.055
			c0.491,1.339,1.538,2.388,2.715,3.153c1.231,0.831,2.731,1.418,3.935,2.29c0.293,0.22,0.571,0.469,0.789,0.765
			c0.204,0.275,0.353,0.59,0.446,0.92c0.275,1.008,0.108,2.074-0.082,3.082c-0.564,2.612-1.517,5.798-1.897,8.436
			c-0.597,3.907-0.815,7.928-0.615,11.876c0.099,1.64,0.261,3.307,0.684,4.898c0.199,0.7,0.436,1.419,0.897,1.994l0.026,0.031
			l0.026,0.03l0.026,0.029l0.026,0.028l0.027,0.027l0.027,0.026l0.027,0.025l0.027,0.024l0.028,0.023l0.028,0.023l0.028,0.022
			l0.028,0.021l0.028,0.02l0.029,0.019l0.029,0.018l0.029,0.017l0.029,0.016l0.03,0.015l0.03,0.014l0.03,0.013l0.03,0.012
			l0.03,0.011l0.031,0.01l0.031,0.009c0.233,0.067,0.482,0.047,0.714-0.013c0.413-0.108,0.794-0.322,1.158-0.538
			c0.464-0.276,1.075-0.714,1.578-0.899c0.114-0.04,0.235-0.071,0.357-0.073l0.019,0l0.018,0.001l0.018,0.001l0.018,0.002
			l0.018,0.002l0.018,0.003l0.017,0.003l0.017,0.003l0.017,0.004l0.017,0.004l0.017,0.005l0.016,0.005l0.016,0.006l0.016,0.006
			l0.016,0.007l0.016,0.007l0.016,0.008l0.015,0.008l0.015,0.009l0.015,0.009l0.015,0.01l0.015,0.01l0.014,0.011l0.014,0.011
			l0.014,0.011l0.014,0.012l0.014,0.012l0.013,0.013l0.013,0.013l0.013,0.014l0.013,0.014l0.013,0.015l0.013,0.015l0.012,0.016
			l0.012,0.016l0.012,0.016l0.012,0.017l0.012,0.017l0.012,0.018c0.237,0.39,0.308,0.855,0.369,1.3
			c0.089,0.741,0.093,1.522,0.084,2.268c-0.003,1.611-0.56,9.681-0.655,11.437c-0.137,2.978-0.229,6.195-0.132,9.171
			c0.062,1.673,0.168,3.401,0.465,5.049c0.12,0.647,0.272,1.303,0.508,1.918c0.139,0.355,0.307,0.706,0.547,1.005l0.025,0.03
			l0.025,0.029l0.025,0.029l0.026,0.028l0.026,0.027l0.026,0.026l0.026,0.025l0.027,0.024l0.027,0.023l0.027,0.023l0.027,0.022
			l0.027,0.021l0.028,0.02l0.028,0.019l0.028,0.018l0.028,0.018l0.029,0.017l0.029,0.016l0.029,0.015
			c0.222,0.11,0.475,0.142,0.721,0.133c0.57-0.021,1.146-0.235,1.713-0.284c0.273-0.023,0.565,0.001,0.802,0.151l0.024,0.015
			l0.024,0.016l0.023,0.017l0.023,0.018l0.023,0.019l0.023,0.02l0.022,0.02l0.022,0.021l0.022,0.022l0.021,0.023l0.021,0.024
			l0.021,0.024l0.021,0.025l0.02,0.026l0.02,0.027l0.02,0.027l0.019,0.028l0.019,0.029l0.019,0.03
			c0.435,0.736,0.549,1.698,0.64,2.537c0.109,1.171,0.105,2.402,0.075,3.578c-0.15,4.778-0.898,10.412-1.425,15.19
			c-0.133,1.482-0.312,3.02-0.107,4.501c0.093,0.561,0.256,1.186,0.744,1.533l0.017,0.011l0.017,0.011l0.017,0.011l0.017,0.011
			l0.018,0.01l0.018,0.01l0.018,0.01l0.018,0.009l0.018,0.009l0.019,0.009l0.019,0.008l0.019,0.008
			c0.291,0.122,0.617,0.117,0.924,0.073c0.584-0.089,1.15-0.3,1.7-0.51l1.872-0.754c0.777-0.294,1.583-0.591,2.42-0.642
			c0.392-0.02,0.804,0.031,1.144,0.239c0.314,0.191,0.544,0.491,0.72,0.808c0.356,0.654,0.538,1.392,0.706,2.113
			c0.277,1.177,0.47,2.774,1.042,3.834c0.146,0.258,0.341,0.498,0.602,0.646c0.189,0.11,0.403,0.173,0.618,0.205
			c0.645,0.095,1.495-0.069,2.142-0.134c0.595-0.059,1.221-0.084,1.788,0.135c0.889,0.358,1.487,1.17,1.999,1.945
			c0.939,1.424,1.641,3.201,2.816,4.457c0.421,0.441,0.915,0.814,1.422,1.149c0.724,0.476,1.616,0.995,2.177,1.663
			c0.617,0.724,1.024,1.605,1.385,2.477c0.705,1.807,1.363,3.76,2.27,5.484l1.972,3.746c1.241,2.895,2.553,5.871,4.278,8.513
			c0.925,1.392,2.013,2.73,3.427,3.649c1.982,1.315,4.447,1.461,6.758,1.5c1.874-0.062,31.704,0.164,32.468-0.121
			c0.721-0.097,1.453-0.269,2.076-0.661c0.778-0.478,1.225-1.281,1.467-2.141c0.337-1.196,0.378-2.461,0.331-3.696
			c-0.176-3.606-1.202-7.159-2.84-10.369c-0.692-1.312-1.446-2.642-2.539-3.666c-0.865-0.815-1.976-1.331-3.133-1.573
			c-1.637-0.365-4.067-0.404-5.752-0.521c-1.27-0.089-2.569-0.246-3.751-0.744c-0.794-0.329-1.514-0.828-2.112-1.444
			c-0.835-0.846-1.448-1.891-1.919-2.977c-0.458-1.063-0.819-2.181-1.096-3.305c-1.101-4.533-2.779-16.45-3.577-21.195
			c-1.707-20.099-3.721-41.908-3.686-62.056c0.096-5.272,0.249-10.702,1.921-15.749c0.79-2.425,1.894-4.777,3.135-7.002
			c1.148-2.045,2.433-4.067,3.886-5.91c0.755-0.94,1.56-1.872,2.514-2.615c0.414-0.311,0.866-0.608,1.381-0.709l0.029-0.005
			l0.028-0.004l0.028-0.004l0.028-0.003l0.028-0.003l0.028-0.002l0.027-0.002l0.027-0.001l0.027,0l0.027,0l0.027,0.001l0.026,0.001
			l0.026,0.002l0.026,0.003c0.339,0.037,0.63,0.238,0.889,0.447l0.353,0.292c0.21,0.169,0.438,0.337,0.707,0.396
			c0.191,0.043,0.393,0.015,0.571-0.063l0.027-0.012l0.027-0.012l0.027-0.013l0.027-0.014l0.027-0.015l0.028-0.016
			c0.308-0.181,0.571-0.434,0.818-0.691c0.842-0.905,1.553-1.971,2.247-2.992c1.233-1.816,2.74-4.36,4.194-5.982
			c0.252-0.268,0.521-0.534,0.839-0.725l0.027-0.016l0.027-0.015l0.027-0.014l0.027-0.013l0.026-0.012l0.026-0.012l0.026-0.011
			l0.026-0.01l0.025-0.009l0.025-0.008l0.025-0.008l0.025-0.007l0.025-0.006l0.024-0.005l0.024-0.004l0.024-0.003l0.024-0.002
			l0.023-0.001l0.023-0.001l0.023,0l0.014,0.001l0.014,0.001l0.014,0.001l0.014,0.002l0.014,0.002l0.014,0.002l0.014,0.003
			l0.014,0.003l0.013,0.003l0.013,0.004l0.013,0.004l0.013,0.004l0.013,0.005l0.013,0.005l0.013,0.005l0.013,0.006l0.013,0.006
			l0.013,0.006l0.013,0.007l0.013,0.007l0.012,0.007l0.012,0.008l0.012,0.008l0.012,0.008l0.012,0.008l0.012,0.009l0.012,0.009
			l0.012,0.009l0.012,0.01c0.14,0.117,0.244,0.271,0.332,0.429c0.227,0.416,0.368,0.883,0.503,1.336l0.404,1.457
			c0.111,0.375,0.231,0.76,0.402,1.111c0.079,0.16,0.171,0.317,0.294,0.447l0.017,0.017l0.017,0.017l0.018,0.016l0.018,0.015
			l0.018,0.015l0.018,0.014l0.018,0.013l0.018,0.013l0.019,0.012l0.019,0.011l0.019,0.011l0.019,0.01l0.019,0.009l0.019,0.009
			l0.02,0.008l0.02,0.007l0.02,0.007l0.02,0.006l0.02,0.005l0.02,0.005l0.02,0.004l0.021,0.003l0.021,0.003l0.021,0.002l0.021,0.001
			l0.021,0.001l0.021,0l0.022,0l0.022-0.001l0.022-0.002l0.022-0.002l0.022-0.003l0.022-0.004l0.022-0.004l0.023-0.005l0.023-0.005
			l0.023-0.006l0.023-0.007l0.023-0.007l0.023-0.008l0.023-0.008l0.023-0.009l0.024-0.01l0.024-0.01l0.024-0.011l0.024-0.011
			c0.499-0.257,0.878-0.696,1.229-1.124c1.319-1.707,2.271-3.7,3.173-5.65c1.193-2.637,2.221-5.451,3.117-8.206
			c0.948-2.858,2.62-8.831,3.655-11.634c0.2-0.527,0.419-1.077,0.682-1.577c0.129-0.241,0.272-0.486,0.456-0.69l0.019-0.021
			l0.019-0.02l0.019-0.019l0.019-0.018l0.019-0.017l0.019-0.017l0.019-0.016l0.019-0.015l0.019-0.014l0.019-0.013l0.019-0.012
			l0.019-0.011l0.019-0.011l0.019-0.01l0.019-0.009l0.018-0.008l0.018-0.007l0.018-0.006l0.018-0.005l0.018-0.004l0.018-0.004
			l0.018-0.003l0.018-0.002l0.018-0.001l0.018,0l0.018,0.001l0.018,0.002l0.018,0.003l0.018,0.004l0.018,0.005l0.018,0.006
			l0.018,0.007l0.018,0.008l0.008,0.004l0.008,0.004l0.008,0.004l0.008,0.004l0.008,0.004c0.086,0.05,0.158,0.121,0.222,0.196
			c0.334,0.406,0.641,1.134,0.887,1.602c0.153,0.293,0.313,0.594,0.528,0.847c0.093,0.106,0.198,0.207,0.329,0.265l0.017,0.007
			l0.017,0.006l0.017,0.006l0.017,0.005l0.017,0.004l0.017,0.004l0.017,0.003l0.017,0.003l0.017,0.002l0.017,0.001l0.017,0.001
			l0.017,0l0.018,0l0.018-0.001l0.018-0.002l0.018-0.002l0.018-0.003l0.018-0.003l0.018-0.004l0.018-0.005l0.018-0.005l0.018-0.006
			l0.018-0.006l0.018-0.007l0.018-0.007l0.018-0.008l0.018-0.008l0.018-0.009l0.018-0.01l0.018-0.01l0.018-0.011l0.018-0.011
			l0.019-0.012l0.019-0.012l0.019-0.013c0.241-0.173,0.429-0.411,0.599-0.651c0.338-0.485,0.612-1.027,0.865-1.56
			c1.792-4.03,3.118-8.802,4.367-13.047c1.088-3.908,1.929-7.955,2.073-12.019c0.14-3.238-0.204-6.511-0.758-9.7
			c-0.419-2.631-1.547-7.591-1.569-10.202c0.006-0.467,0.029-0.949,0.199-1.389l0.011-0.027l0.012-0.027l0.012-0.026l0.012-0.026
			l0.013-0.025l0.013-0.024l0.013-0.024l0.014-0.023l0.014-0.023l0.014-0.022l0.015-0.022l0.015-0.021l0.015-0.02l0.016-0.02
			l0.016-0.019l0.017-0.018l0.017-0.018l0.017-0.017l0.018-0.017l0.018-0.016l0.018-0.015l0.019-0.015l0.019-0.014l0.02-0.013
			l0.02-0.013c0.112-0.07,0.242-0.108,0.372-0.126c0.453-0.058,0.971,0.076,1.418,0.151c0.358,0.057,0.803,0.146,1.14-0.025
			l0.018-0.01l0.018-0.011l0.018-0.011l0.017-0.012l0.017-0.013l0.016-0.013l0.016-0.014l0.016-0.014l0.015-0.015l0.015-0.015
			l0.015-0.016l0.014-0.016l0.014-0.017l0.013-0.018l0.013-0.018l0.013-0.019l0.012-0.019l0.012-0.02l0.012-0.02l0.011-0.021
			l0.011-0.021l0.011-0.022l0.01-0.022l0.01-0.023l0.01-0.023l0.009-0.024l0.009-0.024l0.008-0.025l0.008-0.025
			c0.158-0.563,0.093-1.162,0.026-1.735c-0.107-0.805-0.303-1.65-0.501-2.439c-0.862-3.344-2.958-9.558-3.86-12.896
			c-0.503-1.828-1.02-3.834-1.382-5.693c-0.205-1.086-0.399-2.217-0.435-3.322c-0.007-0.492-0.008-1.005,0.17-1.47l0.009-0.022
			l0.009-0.021l0.01-0.021l0.01-0.02l0.01-0.02l0.01-0.019l0.011-0.019l0.011-0.018l0.011-0.018l0.011-0.017l0.012-0.017
			l0.012-0.016l0.012-0.016l0.013-0.015l0.013-0.014l0.013-0.014l0.013-0.013l0.014-0.013l0.014-0.012l0.014-0.012l0.014-0.011
			l0.015-0.011l0.015-0.01l0.015-0.009l0.015-0.009l0.016-0.008l0.016-0.008l0.016-0.007l0.017-0.007l0.017-0.006l0.017-0.005
			l0.017-0.005l0.018-0.004l0.018-0.004l0.018-0.003l0.018-0.003l0.019-0.002c0.122-0.01,0.245,0.015,0.361,0.051
			c0.584,0.195,1.222,0.67,1.753,0.979c0.298,0.176,0.607,0.354,0.938,0.458c0.159,0.048,0.328,0.081,0.494,0.054l0.023-0.004
			l0.022-0.005l0.022-0.006l0.022-0.006l0.021-0.007l0.021-0.008l0.021-0.009l0.021-0.009l0.02-0.01l0.02-0.011l0.02-0.012
			l0.019-0.012l0.019-0.013l0.019-0.014l0.018-0.014l0.018-0.015l0.018-0.016l0.018-0.016l0.017-0.017l0.017-0.018l0.017-0.019
			l0.016-0.019l0.016-0.02l0.016-0.021l0.016-0.021l0.015-0.022l0.015-0.023l0.015-0.023l0.014-0.024l0.014-0.025l0.014-0.025
			l0.014-0.026l0.013-0.027c0.169-0.351,0.237-0.744,0.286-1.128c0.158-1.474,0.016-2.998-0.12-4.47
			c-1.247-11.743-5.172-24.589-2.523-36.374c1.523-7.048,5.762-15.328,8.612-21.968c1.983-4.459,4.258-11.611,5.849-16.296
			c1.05-2.962,2.206-5.965,3.803-8.678c1.04-1.767,2.305-3.418,3.705-4.915c2.366-2.539,5.228-4.74,8.013-6.803
			c7.192-5.341,15.486-10.645,23.177-15.295c2.955-1.895,5.975-3.949,7.998-6.876c1.081-1.578,1.785-3.389,2.369-5.2l1.276-4.161
			c0.295-0.904,0.629-1.832,1.021-2.698c0.514-1.139,1.168-2.27,1.828-3.331c1.149-1.89,2.869-4.123,3.396-6.291
			c0.16-0.632,0.243-1.291,0.282-1.941c0.086-1.587-0.031-3.629-0.068-5.228"/>
	</g>
	<g id="POLYLINE_00000168836639444834537270000010503261376582272659_">
		
			<path fill="none" stroke="rgb(88, 107, 156)" stroke-width="2.75" stroke-linecap="round" stroke-linejoin="round" stroke-miterlimit="10" d="
			M196.642,395.124c0.655,1.425,1.6,2.921,2.127,4.4c0.392,1.074,0.604,2.215,0.661,3.356c0.085,1.703-0.134,3.441-0.378,5.125
			c-0.548,3.837-1.836,8.96-2.228,12.813c-0.047,0.664-0.099,1.353,0.059,2.005l0.009,0.033l0.01,0.032l0.01,0.032l0.01,0.031
			l0.011,0.03l0.011,0.029l0.012,0.028l0.012,0.027l0.013,0.026l0.013,0.026l0.014,0.025l0.014,0.024l0.014,0.023l0.015,0.022
			l0.015,0.021l0.016,0.02l0.016,0.019l0.017,0.018l0.017,0.017c0.172,0.169,0.426,0.199,0.656,0.206l0.365,0.006
			c0.181,0.007,0.369,0.025,0.533,0.109c0.127,0.064,0.23,0.171,0.297,0.295l0.015,0.029l0.015,0.031l0.014,0.032l0.014,0.033
			l0.013,0.035l0.012,0.036l0.012,0.037l0.011,0.039l0.011,0.04l0.01,0.041l0.009,0.042l0.009,0.044
			c0.099,0.554,0.069,1.128,0.031,1.687c-0.285,3.369-1.708,9.326-2.355,12.709c-0.352,1.875-0.734,3.833-0.829,5.74
			c-0.017,0.5-0.02,1.014,0.084,1.505l0.01,0.045l0.011,0.044l0.012,0.043l0.012,0.042l0.013,0.04l0.013,0.039l0.014,0.038
			l0.015,0.037l0.015,0.035l0.016,0.034l0.017,0.033c0.143,0.277,0.392,0.428,0.69,0.492c0.355,0.083,0.751,0.062,1.086,0.221
			c0.163,0.077,0.298,0.207,0.383,0.366l0.018,0.033l0.017,0.035l0.016,0.036l0.015,0.038l0.015,0.039l0.014,0.041l0.013,0.042
			l0.013,0.043l0.012,0.045l0.011,0.046l0.011,0.048l0.01,0.049c0.12,0.672,0.074,1.369,0.023,2.046
			c-0.523,4.89-2.016,10.663-2.559,15.545c-0.173,1.525-0.305,3.095-0.211,4.63c0.055,0.784,0.163,1.584,0.467,2.315l0.027,0.063
			l0.028,0.062l0.029,0.06l0.03,0.059l0.031,0.058l0.031,0.057l0.032,0.055l0.033,0.054l0.034,0.053l0.035,0.051l0.036,0.05
			l0.037,0.049l0.037,0.047c0.286,0.357,0.684,0.613,1.113,0.764c1.079,0.381,2.354,0.236,3.479,0.206
			c0.423-0.002,0.889-0.025,1.282,0.15l0.014,0.007l0.014,0.007l0.014,0.007l0.014,0.008l0.013,0.008l0.013,0.008l0.013,0.008
			l0.013,0.009l0.012,0.009l0.012,0.009l0.012,0.009l0.011,0.009l0.011,0.01l0.011,0.01l0.011,0.01l0.01,0.01l0.01,0.011l0.01,0.011
			l0.009,0.011l0.009,0.011l0.009,0.011l0.009,0.012l0.008,0.012l0.008,0.012l0.008,0.012l0.007,0.013l0.007,0.013l0.01,0.02
			l0.009,0.02l0.009,0.021l0.008,0.021l0.007,0.022l0.007,0.022l0.006,0.023l0.005,0.023l0.005,0.024l0.004,0.025l0.003,0.025
			l0.003,0.026l0.002,0.026l0.002,0.027l0.001,0.027l0,0.028l0,0.028l-0.001,0.029l-0.001,0.029l-0.002,0.03
			c-0.033,0.378-0.165,0.744-0.303,1.095c-0.981,2.271-2.724,4.825-3.841,7.031c-0.417,0.812-0.821,1.655-1.095,2.527
			c-0.143,0.471-0.258,0.964-0.236,1.459c0.018,0.396,0.158,0.785,0.397,1.101c0.444,0.6,1.198,0.991,1.814,1.388
			c0.396,0.258,0.808,0.542,1.042,0.964l0.013,0.024l0.012,0.024l0.012,0.025l0.012,0.025l0.011,0.025l0.011,0.025l0.01,0.025
			l0.01,0.026l0.009,0.026l0.009,0.026c0.186,0.576,0.051,1.197-0.141,1.754c-0.45,1.226-1.214,2.317-1.988,3.358
			c-4.238,5.493-12.346,12.628-17.339,17.556c-3.415,3.399-6.879,6.927-9.441,11.031c-1.776,2.828-3.07,5.965-4.115,9.128
			c-0.591,1.831-1.463,4.499-1.942,6.35c-0.222,0.883-0.431,1.797-0.5,2.706c-0.026,0.38-0.029,0.769,0.046,1.144
			c0.047,0.23,0.127,0.459,0.273,0.645l0.011,0.014l0.012,0.014l0.012,0.014l0.012,0.013l0.012,0.013l0.012,0.013l0.013,0.013
			l0.013,0.012l0.013,0.012l0.013,0.012l0.013,0.012l0.014,0.011l0.014,0.011c0.202,0.157,0.459,0.22,0.708,0.254
			c0.986,0.129,2.217-0.164,3.029,0.548l0.022,0.021l0.022,0.021l0.022,0.022l0.021,0.022l0.021,0.023l0.021,0.023l0.021,0.024
			c0.524,0.642,0.679,1.555,0.783,2.357c0.345,3.261-0.286,7.762-0.334,11.046c-0.078,2.226,0.313,4.621,0.666,6.819
			c0.258,1.704,0.313,3.457,0.216,5.176c-0.325,5.946-2.132,15.653-3.046,21.608c-0.356,2.287-0.609,4.64-0.462,6.955
			c0.094,1.349,0.325,2.72,0.914,3.948c0.474,0.986,1.22,1.873,2.207,2.372c1.358,0.677,2.935,0.684,4.42,0.729
			c1.284-0.037,30.885,0.103,31.354-0.066c0.04,0.004,0.118-0.02,0.157-0.019c0.591-0.076,1.19-0.241,1.669-0.609
			c0.595-0.455,0.98-1.128,1.27-1.807c0.541-1.31,0.752-2.749,0.7-4.161c-0.077-1.744-0.586-3.451-1.282-5.043
			c-0.688-1.551-1.572-3.035-2.724-4.287c-0.639-0.671-1.31-1.355-2.133-1.797c-0.463-0.246-0.971-0.407-1.482-0.52
			c-1.642-0.341-3.726-0.403-5.372-0.724c-1.11-0.209-2.268-0.586-3.032-1.463c-0.511-0.577-0.817-1.305-1.029-2.039
			c-0.359-1.27-0.493-2.615-0.605-3.926c-0.263-3.003-0.316-7.59-0.421-10.639c-0.024-1.938-0.121-4.829-0.04-6.752
			c0.121-3.352,0.387-6.788,1.519-9.969c1.034-2.843,2.891-5.307,4.892-7.543c1.577-1.755,3.352-3.472,5.09-5.068
			c2.041-1.889,4.26-3.83,6.442-5.557c3.09-2.433,6.349-5.069,9.701-7.129c1.632-1.005,3.36-1.936,5.139-2.653
			c2.266-0.959,5.922-1.795,8.286-2.484c2.416-0.701,4.803-1.615,6.963-2.916c3.995-2.387,7.816-6.107,11.471-8.98
			c1.044-0.786,2.141-1.644,3.398-2.048c0.9-0.288,1.884-0.214,2.8-0.417c0.792-0.166,1.531-0.528,2.218-0.948
			c1.02-0.624,1.987-1.381,2.901-2.15c2.463-2.096,4.758-4.5,6.885-6.934c2.556-2.953,4.992-6.127,7.074-9.434
			c0.806-1.282,1.578-2.651,2.255-4.006c0.808-1.546,1.982-4.384,2.747-5.962c0.217-0.438,0.451-0.888,0.738-1.285
			c0.144-0.195,0.306-0.387,0.511-0.52l0.016-0.01l0.016-0.01l0.016-0.009l0.016-0.009l0.016-0.008l0.016-0.008l0.016-0.008
			l0.016-0.007l0.016-0.007l0.016-0.006l0.016-0.006l0.016-0.006l0.016-0.005l0.016-0.005l0.016-0.004l0.016-0.004l0.016-0.004
			l0.016-0.003l0.016-0.003l0.016-0.002l0.016-0.002l0.016-0.001l0.016-0.001l0.016-0.001l0.016,0l0.017,0l0.017,0.001l0.017,0.001
			c0.151,0.012,0.293,0.076,0.423,0.151c0.638,0.383,1.133,1.063,1.848,1.318c0.33,0.115,0.697,0.065,1.006-0.088
			c0.619-0.31,1.063-0.875,1.444-1.437c0.934-1.443,1.51-3.099,1.986-4.741c1.321-4.568,1.915-10.809,3.191-15.394
			c0.176-0.547,0.36-1.118,0.701-1.588l0.019-0.024l0.019-0.024l0.019-0.023l0.019-0.022l0.019-0.021l0.019-0.02l0.019-0.019
			l0.019-0.019l0.02-0.018l0.02-0.017l0.02-0.016l0.02-0.015l0.02-0.014l0.02-0.013l0.02-0.013l0.02-0.012l0.02-0.011l0.02-0.01
			l0.02-0.009l0.02-0.008c0.12-0.046,0.254-0.041,0.377-0.008c0.336,0.094,0.693,0.371,0.989,0.552
			c0.42,0.266,0.903,0.504,1.414,0.452l0.033-0.003l0.033-0.004l0.033-0.005l0.033-0.006l0.033-0.006l0.034-0.007l0.034-0.008
			l0.034-0.008l0.034-0.009c0.763-0.228,1.382-0.776,1.948-1.315c0.628-0.617,1.205-1.314,1.743-2.011
			c2.036-2.614,4.755-7.301,6.531-10.152c0.497-0.75,0.985-1.556,1.683-2.138c0.237-0.188,0.523-0.342,0.832-0.338
			c0.463,0.008,0.838,0.338,1.141,0.657c1.017,1.147,1.736,2.712,2.417,4.082c1.148,2.444,2.861,6.314,4.14,8.638
			c0.334,0.603,0.693,1.228,1.094,1.789c0.231,0.309,0.474,0.647,0.811,0.847l0.012,0.007l0.012,0.006l0.012,0.006l0.012,0.006
			l0.012,0.005l0.012,0.005l0.012,0.005l0.012,0.004l0.012,0.004l0.012,0.004l0.012,0.003l0.011,0.003l0.011,0.002l0.011,0.002
			l0.011,0.002l0.011,0.001l0.011,0.001l0.011,0.001l0.011,0l0.011,0l0.011,0l0.011-0.001l0.01-0.001l0.01-0.002l0.01-0.002
			l0.01-0.002l0.01-0.003l0.01-0.003l0.01-0.004l0.01-0.004l0.01-0.004l0.009-0.005l0.009-0.005l0.009-0.005l0.009-0.006
			l0.009-0.006l0.009-0.007l0.009-0.007l0.009-0.007l0.009-0.008l0.009-0.008l0.008-0.009l0.008-0.009l0.008-0.009l0.008-0.01
			l0.007-0.009l0.007-0.009l0.007-0.009l0.006-0.009l0.006-0.01c0.057-0.09,0.096-0.192,0.128-0.293
			c0.14-0.437,0.267-1.381,0.353-1.841c0.137-0.707,0.291-1.443,0.686-2.056c0.219-0.339,0.554-0.62,0.958-0.698l0.044-0.008
			l0.045-0.007l0.046-0.006l0.047-0.005l0.047-0.003l0.048-0.002l0.049-0.001l0.05,0l0.05,0.001l0.051,0.003l0.052,0.004
			l0.052,0.005l0.053,0.006l0.054,0.007l0.055,0.008c0.653,0.112,1.269,0.392,1.856,0.69c1.497,0.784,2.917,1.821,4.273,2.827
			c2.777,2.05,6.372,5.173,9.301,6.975c0.526,0.307,1.074,0.611,1.666,0.768l0.047,0.011l0.046,0.01l0.045,0.009l0.045,0.008
			l0.044,0.007l0.043,0.006l0.042,0.005l0.042,0.004l0.041,0.002l0.04,0.001l0.039,0l0.038-0.001l0.037-0.002l0.036-0.004
			l0.036-0.005l0.035-0.006l0.034-0.007l0.033-0.009l0.032-0.01l0.031-0.011l0.03-0.013l0.014-0.006l0.013-0.006l0.013-0.007
			l0.013-0.007l0.013-0.007l0.013-0.008l0.012-0.008l0.012-0.008l0.012-0.008l0.012-0.009l0.012-0.009l0.012-0.009l0.011-0.009
			l0.011-0.01l0.011-0.01l0.011-0.01l0.011-0.01l0.011-0.01l0.01-0.011l0.01-0.011l0.01-0.011c0.299-0.351,0.361-0.883,0.415-1.327
			c0.08-0.697,0.058-1.497,0.237-2.177c0.042-0.144,0.096-0.288,0.185-0.41l0.008-0.011l0.008-0.011l0.009-0.011l0.009-0.01
			l0.009-0.01l0.009-0.01l0.009-0.01l0.009-0.009l0.009-0.009l0.01-0.009l0.01-0.009l0.01-0.008l0.01-0.008l0.01-0.008l0.01-0.008
			l0.01-0.007l0.011-0.007l0.011-0.007l0.011-0.007l0.011-0.006l0.011-0.006l0.012-0.006l0.012-0.005l0.012-0.005l0.012-0.005
			l0.012-0.005l0.012-0.004l0.013-0.004l0.013-0.004l0.034-0.008l0.035-0.007l0.036-0.005l0.037-0.003l0.039-0.001l0.04,0.001
			l0.041,0.003l0.042,0.005l0.043,0.007l0.044,0.008l0.046,0.01l0.047,0.012l0.048,0.014l0.049,0.016l0.05,0.017l0.051,0.019
			l0.052,0.021l0.053,0.023l0.054,0.024c0.664,0.315,1.256,0.78,1.828,1.237c3.848,3.243,8.475,8.366,12.117,11.873
			c1.71,1.651,3.515,3.378,5.424,4.795c0.723,0.522,1.479,1.039,2.319,1.352l0.067,0.024l0.066,0.022l0.065,0.02l0.064,0.018
			l0.064,0.017l0.063,0.015l0.062,0.013l0.061,0.011l0.06,0.01l0.059,0.008l0.058,0.006l0.057,0.004l0.056,0.002l0.054,0
			l0.053-0.002c0.428-0.013,0.794-0.255,1.05-0.587c0.474-0.616,0.729-1.48,1.018-2.196c0.294-0.714,0.66-1.623,1.478-1.843
			l0.04-0.01l0.041-0.009l0.042-0.007l0.042-0.006l0.043-0.005l0.043-0.004l0.044-0.003l0.045-0.002l0.045-0.001l0.046,0
			l0.047,0.001l0.047,0.003l0.048,0.004l0.048,0.005l0.049,0.006l0.049,0.007l0.05,0.008c0.641,0.111,1.241,0.396,1.811,0.699
			c1.472,0.808,2.848,1.865,4.174,2.892c2.272,1.764,6.281,5.268,8.727,6.671c0.477,0.267,0.977,0.522,1.512,0.647l0.046,0.01
			l0.045,0.009l0.045,0.008l0.044,0.007l0.043,0.006l0.043,0.005l0.042,0.004l0.041,0.003l0.041,0.002l0.04,0
			c0.961,0.006,1.389-1.022,1.85-1.703c0.246-0.377,0.528-0.746,0.9-1.007c0.28-0.199,0.61-0.326,0.95-0.374l0.066-0.009
			l0.068-0.007l0.069-0.006l0.07-0.004l0.072-0.003l0.073-0.001l0.074,0.001l0.076,0.002l0.077,0.004
			c0.943,0.061,1.861,0.364,2.744,0.688c4.192,1.587,10.899,5.735,14.893,7.924c2.645,1.459,5.386,2.976,8.218,4.037
			c1.042,0.373,2.127,0.716,3.241,0.755l0.083,0.001l0.082,0l0.08-0.002l0.079-0.003l0.078-0.005l0.076-0.006l0.075-0.008
			l0.074-0.01l0.073-0.011l0.071-0.013l0.07-0.014l0.068-0.016l0.067-0.018l0.066-0.019l0.064-0.021l0.063-0.023l0.061-0.024
			l0.06-0.026l0.059-0.028l0.057-0.029c0.423-0.224,0.73-0.618,0.934-1.044c0.353-0.747,0.474-1.584,0.574-2.397
			c0.09-0.737,0.153-1.864,0.355-2.569c0.049-0.165,0.111-0.33,0.205-0.475l0.01-0.016l0.011-0.015l0.011-0.015l0.011-0.015
			l0.011-0.014l0.011-0.014l0.012-0.013l0.012-0.013l0.012-0.013l0.012-0.012l0.012-0.012l0.013-0.012l0.013-0.011l0.013-0.011
			l0.013-0.01l0.013-0.01l0.014-0.009l0.014-0.009l0.014-0.009l0.014-0.008l0.014-0.008l0.015-0.007l0.015-0.007l0.015-0.007
			l0.015-0.006l0.016-0.006l0.016-0.005l0.016-0.005l0.016-0.004l0.016-0.004l0.026-0.005l0.026-0.004l0.027-0.003l0.027-0.002
			l0.028-0.001l0.028,0l0.029,0.001l0.029,0.002l0.03,0.003l0.03,0.004l0.031,0.005l0.031,0.006l0.032,0.007l0.032,0.008
			l0.033,0.009l0.033,0.01l0.034,0.011l0.034,0.012l0.035,0.013c0.331,0.126,0.636,0.321,0.926,0.521
			c0.683,0.48,1.342,1.068,1.963,1.628c2.35,2.136,4.973,4.938,7.659,6.615c0.573,0.338,1.185,0.649,1.847,0.762l0.049,0.007
			l0.049,0.007l0.048,0.006l0.048,0.005l0.047,0.004l0.047,0.003l0.047,0.002l0.046,0.001l0.046,0l0.046-0.001l0.045-0.002
			l0.045-0.004l0.044-0.005l0.044-0.006l0.044-0.007l0.043-0.008l0.043-0.009l0.042-0.01l0.042-0.011l0.042-0.012l0.032-0.01
			l0.032-0.011l0.032-0.012l0.032-0.012l0.031-0.013l0.031-0.014l0.031-0.014l0.031-0.015l0.03-0.016l0.03-0.016l0.03-0.017
			l0.03-0.018l0.029-0.018l0.029-0.019l0.029-0.02l0.029-0.02l0.028-0.021l0.028-0.021c0.448-0.351,0.745-0.856,0.982-1.365
			c0.538-1.203,0.797-2.527,1.032-3.818c0.179-1.024,0.399-2.684,0.645-3.675c0.048-0.179,0.102-0.362,0.187-0.528l0.009-0.017
			l0.009-0.017l0.009-0.016l0.009-0.015l0.009-0.015l0.01-0.014l0.01-0.013l0.01-0.013l0.01-0.012l0.01-0.011l0.01-0.011l0.01-0.01
			l0.01-0.009l0.01-0.008l0.01-0.008l0.01-0.007l0.01-0.006l0.01-0.005l0.01-0.005l0.011-0.004l0.011-0.003l0.011-0.003l0.011-0.002
			l0.011-0.001l0.011-0.001l0.011,0l0.011,0.001l0.011,0.001l0.011,0.002l0.012,0.002l0.012,0.003l0.012,0.004l0.012,0.004
			l0.012,0.005l0.012,0.006l0.012,0.006l0.012,0.007l0.012,0.007l0.012,0.008l0.012,0.009l0.012,0.009l0.013,0.01l0.013,0.01
			l0.013,0.011l0.013,0.012l0.013,0.012l0.013,0.013c0.127,0.128,0.229,0.283,0.324,0.435c0.436,0.704,1.342,2.719,1.722,3.485
			c0.651,1.297,1.343,2.616,2.315,3.704c0.454,0.502,0.999,0.946,1.644,1.173c1.72,0.609,3.524-0.314,4.859-1.372
			c0.884-0.705,1.668-1.541,2.341-2.447c0.672-0.895,1.272-2.001,1.817-2.982c0.252-0.434,0.501-0.912,0.863-1.266
			c0.094-0.088,0.202-0.166,0.325-0.205l0.01-0.003l0.01-0.003l0.01-0.003l0.01-0.002l0.01-0.002l0.01-0.002l0.01-0.002l0.01-0.002
			c0.277-0.04,0.525,0.135,0.729,0.3c0.41,0.34,1.007,1.063,1.373,1.461c0.408,0.452,0.85,0.896,1.31,1.294
			c2.413,2.063,5.266,3.585,8.099,4.986"/>
	</g>
	<g id="POLYLINE_00000109735960440995644600000015250473652249713337_">
		
			<path fill="none" stroke="rgb(88, 107, 156)" stroke-width="2.75" stroke-linecap="round" stroke-linejoin="round" stroke-miterlimit="10" d="
			M208.082,536.374c0.67,5.078,1.728,10.169,3.634,14.937c1.387,3.424,3.293,7.313,4.454,10.814
			c1.252,3.595,2.046,7.431,2.661,11.184c1.38,8.226,2.602,19.917,5.154,27.758c0.599,1.687,1.321,3.486,2.775,4.616
			c0.689,0.532,1.533,0.828,2.389,0.955c0.479,0.074,0.981,0.106,1.465,0.122c0.193,0.014,0.673,0.007,0.87,0.014
			c0,0,27.261-0.009,27.261-0.009c1.704-0.043,3.495-0.047,5.157-0.455c0.826-0.208,1.653-0.554,2.25-1.18
			c0.482-0.499,0.773-1.153,0.918-1.826c0.218-1.014,0.173-2.071,0.076-3.097c-0.204-1.935-0.647-3.854-1.246-5.704
			c-0.607-1.842-1.423-3.658-2.66-5.167c-0.46-0.549-0.969-1.078-1.571-1.472c-0.379-0.246-0.8-0.426-1.232-0.554
			c-0.549-0.163-1.13-0.262-1.697-0.343c-3.08-0.427-7.102-0.517-10.151-1.118c-0.879-0.192-1.782-0.46-2.483-1.047
			c-0.57-0.474-0.951-1.134-1.228-1.814c-0.31-0.758-0.523-1.58-0.721-2.373c-1.022-4.317-1.917-9.088-2.665-13.466
			c-0.464-2.96-1.083-6.439-1.338-9.417c-0.041-0.614-0.051-1.248,0.012-1.861c0.087-0.909,0.324-1.807,0.602-2.675
			c0.525-1.617,1.209-3.265,1.884-4.825c3.243-7.393,7.436-14.536,11.735-21.358c2.896-4.475,5.99-9.44,9.488-13.465
			c4.588-5.466,11.912-10.813,17.406-15.379c3.658-3.048,7.217-6.372,10.366-9.947c2.329-2.633,4.435-5.508,6.061-8.631
			c0.52-0.973,1.557-3.127,2.143-4.021c0.172-0.263,0.362-0.52,0.584-0.743c0.24-0.244,0.522-0.451,0.834-0.594
			c0.334-0.155,0.699-0.232,1.062-0.281l0.655-0.082c1.124-0.118,2.067-0.772,2.838-1.562c1.306-1.342,2.193-3.06,2.649-4.87
			c0.674-2.684,0.596-5.817,1.275-8.501c0.152-0.625,0.356-1.267,0.578-1.87c1.012-2.629,3.464-8.295,4.451-10.903"/>
	</g>
</g>
<g id="_x32_D_x24_AG-OUTLINE">
	<g id="POLYLINE_00000145030626775601244960000006373633653214489782_">
		
			<path fill="none" stroke="rgb(88, 107, 156)" stroke-width="3.5" stroke-linecap="round" stroke-linejoin="round" stroke-miterlimit="10" d="
			M469.973,495.113c-0.052,2.039-0.016,4.122,0.193,6.152c0.139,1.263,0.327,2.548,0.737,3.754c0.22,0.611,0.515,1.315,1.062,1.699
			l0.019,0.013l0.019,0.012l0.02,0.012l0.02,0.011l0.02,0.011l0.02,0.011l0.02,0.01l0.02,0.01l0.02,0.009l0.02,0.009l0.02,0.008
			l0.02,0.008l0.021,0.008l0.021,0.007l0.021,0.007l0.021,0.006c0.233,0.067,0.482,0.047,0.714-0.013
			c0.413-0.108,0.794-0.322,1.158-0.538c0.464-0.276,1.075-0.714,1.578-0.899c0.114-0.04,0.235-0.071,0.357-0.073l0.019,0
			l0.018,0.001l0.018,0.001l0.018,0.002l0.018,0.002l0.018,0.003l0.017,0.003l0.017,0.003l0.017,0.004l0.017,0.004l0.017,0.005
			l0.016,0.005l0.016,0.006l0.016,0.006l0.016,0.007l0.016,0.007l0.016,0.008l0.015,0.008l0.015,0.009l0.015,0.009l0.015,0.01
			l0.015,0.01l0.014,0.011l0.014,0.011l0.014,0.011l0.014,0.012l0.014,0.012l0.013,0.013l0.013,0.013l0.013,0.014l0.013,0.014
			l0.013,0.015l0.013,0.015l0.012,0.016l0.012,0.016l0.012,0.016l0.012,0.017l0.012,0.017l0.012,0.018
			c0.237,0.39,0.308,0.855,0.369,1.3c0.089,0.741,0.093,1.522,0.084,2.268c-0.003,1.611-0.56,9.681-0.655,11.437
			c-0.137,2.978-0.229,6.195-0.132,9.171c0.062,1.673,0.168,3.401,0.465,5.049c0.12,0.647,0.272,1.303,0.508,1.918
			c0.139,0.355,0.307,0.706,0.547,1.005l0.025,0.03l0.025,0.029l0.025,0.029l0.026,0.028l0.026,0.027l0.026,0.026l0.026,0.025
			l0.027,0.024l0.027,0.023l0.027,0.023l0.027,0.022l0.027,0.021l0.028,0.02l0.028,0.019l0.028,0.018l0.028,0.018l0.029,0.017
			l0.029,0.016l0.029,0.015c0.222,0.11,0.475,0.142,0.721,0.133c0.57-0.021,1.146-0.235,1.713-0.284
			c0.273-0.023,0.565,0.001,0.802,0.151l0.024,0.015l0.024,0.016l0.023,0.017l0.023,0.018l0.023,0.019l0.023,0.02l0.022,0.02
			l0.022,0.021l0.022,0.022l0.021,0.023l0.021,0.024l0.021,0.024l0.021,0.025l0.02,0.026l0.02,0.027l0.02,0.027l0.019,0.028
			l0.019,0.029l0.019,0.03c0.435,0.736,0.549,1.698,0.64,2.537c0.109,1.171,0.105,2.402,0.075,3.578
			c-0.15,4.778-0.898,10.412-1.425,15.19c-0.133,1.482-0.312,3.02-0.107,4.501c0.093,0.561,0.256,1.186,0.744,1.533l0.017,0.011
			l0.017,0.011l0.017,0.011l0.017,0.011l0.018,0.01l0.018,0.01l0.018,0.01l0.018,0.009l0.018,0.009l0.019,0.009l0.019,0.008
			l0.019,0.008c0.291,0.122,0.617,0.117,0.924,0.073c0.584-0.089,1.15-0.3,1.7-0.51l1.872-0.754c0.777-0.294,1.583-0.591,2.42-0.642
			c0.392-0.02,0.804,0.031,1.144,0.239c0.314,0.191,0.544,0.491,0.72,0.808c0.356,0.654,0.538,1.392,0.706,2.113
			c0.277,1.177,0.47,2.774,1.042,3.834c0.146,0.258,0.341,0.498,0.602,0.646c0.189,0.11,0.403,0.173,0.618,0.205
			c0.645,0.095,1.495-0.069,2.142-0.134c0.595-0.059,1.221-0.084,1.788,0.135c0.889,0.358,1.487,1.17,1.999,1.945
			c0.939,1.424,1.641,3.201,2.816,4.457c0.421,0.441,0.915,0.814,1.422,1.149c0.724,0.476,1.616,0.995,2.177,1.663
			c0.617,0.724,1.024,1.605,1.385,2.477c0.705,1.807,1.363,3.76,2.27,5.484l1.972,3.746c1.241,2.895,2.553,5.871,4.278,8.513
			c0.925,1.392,2.013,2.73,3.427,3.649c1.982,1.315,4.447,1.461,6.758,1.5c1.874-0.062,31.704,0.164,32.468-0.121
			c0.721-0.097,1.453-0.269,2.076-0.661c0.778-0.478,1.225-1.281,1.467-2.141c0.337-1.196,0.378-2.461,0.331-3.696
			c-0.176-3.606-1.202-7.159-2.84-10.369c-0.692-1.312-1.446-2.642-2.539-3.666c-0.865-0.815-1.976-1.331-3.133-1.573
			c-1.637-0.365-4.067-0.404-5.752-0.521c-1.27-0.089-2.569-0.246-3.751-0.744c-0.794-0.329-1.514-0.828-2.112-1.444
			c-0.835-0.846-1.448-1.891-1.919-2.977c-0.458-1.063-0.819-2.181-1.096-3.305c-1.101-4.533-2.779-16.45-3.577-21.195
			c-1.707-20.099-3.721-41.908-3.686-62.056c0.096-5.272,0.249-10.702,1.921-15.749c0.79-2.425,1.894-4.777,3.135-7.002
			c1.148-2.045,2.433-4.067,3.886-5.91c0.755-0.94,1.56-1.872,2.514-2.615c0.414-0.311,0.866-0.608,1.381-0.709l0.029-0.005
			l0.028-0.004l0.028-0.004l0.028-0.003l0.028-0.003l0.028-0.002l0.027-0.002l0.027-0.001l0.027,0l0.027,0l0.027,0.001l0.026,0.001
			l0.026,0.002l0.026,0.003c0.339,0.037,0.63,0.238,0.889,0.447l0.353,0.292c0.21,0.169,0.438,0.337,0.707,0.396
			c0.191,0.043,0.393,0.015,0.571-0.063l0.027-0.012l0.027-0.012l0.027-0.013l0.027-0.014l0.027-0.015l0.028-0.016
			c0.308-0.181,0.571-0.434,0.818-0.691c0.842-0.905,1.553-1.971,2.247-2.992c1.233-1.816,2.74-4.36,4.194-5.982
			c0.252-0.268,0.521-0.534,0.839-0.725l0.027-0.016l0.027-0.015l0.027-0.014l0.027-0.013l0.026-0.012l0.026-0.012l0.026-0.011
			l0.026-0.01l0.025-0.009l0.025-0.008l0.025-0.008l0.025-0.007l0.025-0.006l0.024-0.005l0.024-0.004l0.024-0.003l0.024-0.002
			l0.023-0.001l0.023-0.001l0.023,0l0.014,0.001l0.014,0.001l0.014,0.001l0.014,0.002l0.014,0.002l0.014,0.002l0.014,0.003
			l0.014,0.003l0.013,0.003l0.013,0.004l0.013,0.004l0.013,0.004l0.013,0.005l0.013,0.005l0.013,0.005l0.013,0.006l0.013,0.006
			l0.013,0.006l0.013,0.007l0.013,0.007l0.012,0.007l0.012,0.008l0.012,0.008l0.012,0.008l0.012,0.008l0.012,0.009l0.012,0.009
			l0.012,0.009l0.012,0.01c0.14,0.117,0.244,0.271,0.332,0.429c0.227,0.416,0.368,0.883,0.503,1.336l0.404,1.457
			c0.111,0.375,0.231,0.76,0.402,1.111c0.079,0.16,0.171,0.317,0.294,0.447l0.017,0.017l0.017,0.017l0.018,0.016l0.018,0.015
			l0.018,0.015l0.018,0.014l0.018,0.013l0.018,0.013l0.019,0.012l0.019,0.011l0.019,0.011l0.019,0.01l0.019,0.009l0.019,0.009
			l0.02,0.008l0.02,0.007l0.02,0.007l0.02,0.006l0.02,0.005l0.02,0.005l0.02,0.004l0.021,0.003l0.021,0.003l0.021,0.002l0.021,0.001
			l0.021,0.001l0.021,0l0.022,0l0.022-0.001l0.022-0.002l0.022-0.002l0.022-0.003l0.022-0.004l0.022-0.004l0.023-0.005l0.023-0.005
			l0.023-0.006l0.023-0.007l0.023-0.007l0.023-0.008l0.023-0.008l0.023-0.009l0.024-0.01l0.024-0.01l0.024-0.011l0.024-0.011
			c0.499-0.257,0.878-0.696,1.229-1.124c1.319-1.707,2.271-3.7,3.173-5.65c1.193-2.637,2.221-5.451,3.117-8.206
			c0.948-2.858,2.62-8.831,3.655-11.634c0.2-0.527,0.419-1.077,0.682-1.577c0.129-0.241,0.272-0.486,0.456-0.69l0.019-0.021
			l0.019-0.02l0.019-0.019l0.019-0.018l0.019-0.017l0.019-0.017l0.019-0.016l0.019-0.015l0.019-0.014l0.019-0.013l0.019-0.012
			l0.019-0.011l0.019-0.011l0.019-0.01l0.019-0.009l0.018-0.008l0.018-0.007l0.018-0.006l0.018-0.005l0.018-0.004l0.018-0.004
			l0.018-0.003l0.018-0.002l0.018-0.001l0.018,0l0.018,0.001l0.018,0.002l0.018,0.003l0.018,0.004l0.018,0.005l0.018,0.006
			l0.018,0.007l0.018,0.008l0.008,0.004l0.008,0.004l0.008,0.004l0.008,0.004l0.008,0.004c0.086,0.05,0.158,0.121,0.222,0.196
			c0.334,0.406,0.641,1.134,0.887,1.602c0.153,0.293,0.313,0.594,0.528,0.847c0.093,0.106,0.198,0.207,0.329,0.265l0.017,0.007
			l0.017,0.006l0.017,0.006l0.017,0.005l0.017,0.004l0.017,0.004l0.017,0.003l0.017,0.003l0.017,0.002l0.017,0.001l0.017,0.001
			l0.017,0l0.018,0l0.018-0.001l0.018-0.002l0.018-0.002l0.018-0.003l0.018-0.003l0.018-0.004l0.018-0.005l0.018-0.005l0.018-0.006
			l0.018-0.006l0.018-0.007l0.018-0.007l0.018-0.008l0.018-0.008l0.018-0.009l0.018-0.01l0.018-0.01l0.018-0.011l0.018-0.011
			l0.019-0.012l0.019-0.012l0.019-0.013c0.241-0.173,0.429-0.411,0.599-0.651c0.338-0.485,0.612-1.027,0.865-1.56
			c1.792-4.03,3.118-8.802,4.367-13.047c1.088-3.908,1.929-7.955,2.073-12.019c0.14-3.238-0.204-6.511-0.758-9.7
			c-0.419-2.631-1.547-7.591-1.569-10.202c0.006-0.467,0.029-0.949,0.199-1.389l0.011-0.027l0.012-0.027l0.012-0.026l0.012-0.026
			l0.013-0.025l0.013-0.024l0.013-0.024l0.014-0.023l0.014-0.023l0.014-0.022l0.015-0.022l0.015-0.021l0.015-0.02l0.016-0.02
			l0.016-0.019l0.017-0.018l0.017-0.018l0.017-0.017l0.018-0.017l0.018-0.016l0.018-0.015l0.019-0.015l0.019-0.014l0.02-0.013
			l0.02-0.013c0.112-0.07,0.242-0.108,0.372-0.126c0.453-0.058,0.971,0.076,1.418,0.151c0.358,0.057,0.803,0.146,1.14-0.025
			l0.018-0.01l0.018-0.011l0.018-0.011l0.017-0.012l0.017-0.013l0.016-0.013l0.016-0.014l0.016-0.014l0.015-0.015l0.015-0.015
			l0.015-0.016l0.014-0.016l0.014-0.017l0.013-0.018l0.013-0.018l0.013-0.019l0.012-0.019l0.012-0.02l0.012-0.02l0.011-0.021
			l0.011-0.021l0.011-0.022l0.01-0.022l0.01-0.023l0.01-0.023l0.009-0.024l0.009-0.024l0.008-0.025l0.008-0.025
			c0.158-0.563,0.093-1.162,0.026-1.735c-0.107-0.805-0.303-1.65-0.501-2.439c-0.862-3.344-2.958-9.558-3.86-12.896
			c-0.503-1.828-1.02-3.834-1.382-5.693c-0.205-1.086-0.399-2.217-0.435-3.322c-0.007-0.492-0.008-1.005,0.17-1.47l0.009-0.022
			l0.009-0.021l0.01-0.021l0.01-0.02l0.01-0.02l0.01-0.019l0.011-0.019l0.011-0.018l0.011-0.018l0.011-0.017l0.012-0.017
			l0.012-0.016l0.012-0.016l0.013-0.015l0.013-0.014l0.013-0.014l0.013-0.013l0.014-0.013l0.014-0.012l0.014-0.012l0.014-0.011
			l0.015-0.011l0.015-0.01l0.015-0.009l0.015-0.009l0.016-0.008l0.016-0.008l0.016-0.007l0.017-0.007l0.017-0.006l0.017-0.005
			l0.017-0.005l0.018-0.004l0.018-0.004l0.018-0.003l0.018-0.003l0.019-0.002c0.122-0.01,0.245,0.015,0.361,0.051
			c0.584,0.195,1.222,0.67,1.753,0.979c0.298,0.176,0.607,0.354,0.938,0.458c0.159,0.048,0.328,0.081,0.494,0.054l0.023-0.004
			l0.022-0.005l0.022-0.006l0.022-0.006l0.021-0.007l0.021-0.008l0.021-0.009l0.021-0.009l0.02-0.01l0.02-0.011l0.02-0.012
			l0.019-0.012l0.019-0.013l0.019-0.014l0.018-0.014l0.018-0.015l0.018-0.016l0.018-0.016l0.017-0.017l0.017-0.018l0.017-0.019
			l0.016-0.019l0.016-0.02l0.016-0.021l0.016-0.021l0.015-0.022l0.015-0.023l0.015-0.023l0.014-0.024l0.014-0.025l0.014-0.025
			l0.014-0.026l0.013-0.027c0.169-0.351,0.237-0.744,0.286-1.128c0.158-1.474,0.016-2.998-0.12-4.47
			c-1.247-11.743-5.172-24.589-2.523-36.374c1.523-7.048,5.762-15.328,8.612-21.968c1.983-4.459,4.258-11.611,5.849-16.296
			c1.05-2.962,2.206-5.965,3.803-8.678c1.04-1.767,2.305-3.418,3.705-4.915c2.366-2.539,5.228-4.74,8.013-6.803
			c7.192-5.341,15.486-10.645,23.177-15.295c2.955-1.895,5.975-3.949,7.998-6.876c1.081-1.578,1.785-3.389,2.369-5.2l1.276-4.161
			c0.295-0.904,0.629-1.832,1.021-2.698c0.514-1.139,1.168-2.27,1.828-3.331c1.149-1.89,2.869-4.123,3.396-6.291
			c0.16-0.632,0.243-1.291,0.282-1.941c0.086-1.587-0.031-3.629-0.068-5.228c0.547-0.627,0.817-1.444,0.958-2.252
			c0.271-1.648,0.094-3.345-0.121-4.991c-0.191-1.117-0.31-2.587-0.652-3.657c-0.096-0.275-0.225-0.542-0.403-0.773
			c-0.269-0.354-0.65-0.606-1.056-0.779c-1.053-0.431-2.211-0.551-3.337-0.635c-1.894-0.106-3.824-0.046-5.695,0.279
			c-4.878-0.116-9.826,0.143-14.628,1.043c-4.314,0.78-9.025,2.509-13.349,3.236c-2.901,0.471-5.9,0.482-8.792-0.067
			c-2.354-0.428-4.629-1.299-6.783-2.324c-3.866-1.856-8.122-4.176-12.383-4.832c-3.295-0.555-6.69-0.483-10.002-0.11
			c-4.654,0.538-9.282,1.693-13.73,3.15c-5.61,1.89-11.527,4.307-16.94,6.703c-4.343,1.999-8.638,4.352-12.135,7.655
			c-2.241,2.123-4.11,4.637-5.61,7.331c-1.626,2.94-2.862,6.136-3.544,9.429c-0.807,3.779-0.649,7.732-0.449,11.568
			c-2.841,4.973-5.678,10.225-7.797,15.534c-1.724,4.299-3.71,10.277-5.45,14.556c-1.491,3.698-3.224,7.427-5.187,10.897
			c-2.358,4.142-5.092,8.162-8.555,11.464c-4.268,4.091-9.726,6.768-14.975,9.371c-5.73,2.79-15.03,7.453-20.818,9.862
			c-5.556,2.382-11.499,4.628-17.242,6.5c-14.803,4.882-30.43,8.013-45.806,10.494c-10.612,1.606-22.436,3.53-33.132,4.247
			c-6.353,0.419-12.958,0.326-19.305-0.184l-19.566-1.8c-4.242-0.309-8.665-0.606-12.905-0.219c-2.061,0.194-4.141,0.614-6.14,1.15
			c-2.271,0.627-5.654,1.648-7.93,2.049c-2.707,0.512-5.915,0.786-8.675,1.027c-4.827,0.404-10.786,0.801-15.51,1.693
			c-3.01,0.551-6.051,1.395-8.966,2.329l-8.484,2.845c-3.912,1.29-7.933,2.115-12.06,2.168c-6.395,0.139-13.449-1.315-19.841-1.341
			c-2.05-0.01-4.136,0.104-6.146,0.521c-1.608,0.333-3.19,0.888-4.71,1.503c-2.208,0.904-5.183,2.264-7.492,2.79
			c-1.663,0.412-3.396,0.562-5.106,0.505c-5.993-0.193-12.142-2.123-18.149-2.092c-0.986,0.014-1.996,0.096-2.965,0.285
			c-1.252,0.239-2.485,0.65-3.671,1.112c-2.202,0.853-4.635,2.078-6.999,2.206c-1.366,0.093-2.725-0.22-3.991-0.717
			c-1.863-0.732-3.624-1.798-5.311-2.866c-3.6-2.309-7.688-5.282-11.646-6.85c-1.673-0.666-3.456-1.083-5.247-1.264
			c-2.132-0.221-4.313-0.124-6.442,0.099c-2.701,0.285-6.331,0.942-9.027,1.003c-3.066,0.136-7.69-0.517-10.783-0.835
			c-2.761-0.273-5.622-0.455-8.396-0.371c-3.558,0.12-7.221,0.605-10.42,2.254c-2.623,1.331-5.025,3.504-7.351,5.287
			c-1.587,1.225-3.302,2.335-5.183,3.049c-1.735,0.698-3.874,1.232-5.577,2.004c-0.495,0.231-0.986,0.5-1.406,0.851
			c-0.326,0.272-0.612,0.602-0.795,0.987c-0.182,0.38-0.266,0.803-0.275,1.223c-0.016,1.204,0.479,2.357,1.121,3.354
			c0.783,1.196,1.838,2.213,3.031,2.995c1.078,0.705,2.285,1.215,3.507,1.612c3.538,1.171,8.123,1.504,11.83,1.978
			c1.674,0.211,3.413,0.475,5.021,0.984c1.428,0.442,2.816,1.096,4.136,1.793c2.848,1.621,7.516,3.761,10.508,5.187
			c5.394,2.655,10.872,5.672,14.817,10.313c1.688,1.999,2.948,4.34,4.041,6.706c0.823,1.741,2.08,4.916,3.067,6.519
			c0.358,0.592,0.762,1.17,1.266,1.647c0.378,0.357,0.826,0.655,1.328,0.804c0.495,0.149,1.023,0.151,1.533,0.093
			c1.789-0.212,3.561-1.121,5.371-1.2c0.516-0.017,1.046,0.057,1.51,0.292c0.453,0.227,0.819,0.597,1.123,0.996
			c1.074,1.465,1.642,3.391,2.283,5.076c0.396,1.056,0.801,2.186,1.411,3.139c0.249,0.378,0.545,0.745,0.939,0.979
			c0.919,0.531,2.069,0.107,3.031-0.082c0.749-0.16,1.628-0.269,2.269,0.243l0.027,0.022l0.027,0.022l0.027,0.023
			c0.33,0.291,0.568,0.672,0.771,1.058c0.436,0.849,0.732,1.798,1.01,2.709c0.652,2.128,1.243,4.887,2.382,6.801
			c0.348,0.567,0.784,1.111,1.377,1.433l0.037,0.02l0.038,0.019l0.038,0.018l0.038,0.018l0.038,0.017l0.039,0.016l0.039,0.015
			l0.039,0.015l0.04,0.014c0.578,0.196,1.208,0.145,1.794,0.01c1.847-0.447,3.845-1.774,5.509-2.678
			c0.591-0.322,1.207-0.649,1.841-0.876c0.336-0.117,0.688-0.215,1.046-0.211l0.029,0.001l0.029,0.001l0.029,0.002l0.028,0.002
			l0.028,0.003l0.028,0.003l0.028,0.004l0.027,0.005l0.027,0.005l0.027,0.006l0.026,0.006l0.026,0.007l0.026,0.007l0.025,0.008
			l0.025,0.009l0.025,0.009l0.024,0.01l0.024,0.01l0.024,0.011l0.023,0.012l0.023,0.012l0.021,0.012l0.02,0.012l0.02,0.013
			l0.02,0.013l0.02,0.014l0.019,0.014l0.019,0.015l0.019,0.015l0.019,0.016l0.018,0.016l0.018,0.017l0.018,0.017l0.017,0.018
			l0.017,0.018l0.017,0.019l0.017,0.019l0.016,0.02l0.016,0.02l0.016,0.021l0.016,0.021c0.204,0.281,0.316,0.619,0.399,0.953
			c0.183,0.775,0.22,1.595,0.25,2.388c0.055,1.411-0.039,3.551,0.285,4.913c0.066,0.259,0.153,0.518,0.299,0.743l0.014,0.021
			l0.014,0.02l0.021,0.029l0.022,0.028l0.022,0.027l0.023,0.026l0.023,0.025l0.024,0.024l0.024,0.023l0.025,0.022l0.025,0.021
			l0.026,0.02l0.026,0.019l0.027,0.018l0.027,0.017l0.027,0.016l0.028,0.015l0.028,0.014l0.029,0.013l0.029,0.012l0.03,0.011
			l0.03,0.01l0.031,0.01l0.031,0.009l0.032,0.008l0.032,0.007l0.032,0.006l0.033,0.005l0.033,0.004l0.034,0.003l0.034,0.002
			l0.035,0.001l0.035,0l0.035,0l0.036-0.001l0.036-0.002l0.037-0.003l0.037-0.004l0.038-0.005l0.038-0.006l0.038-0.007l0.039-0.007
			l0.039-0.008l0.04-0.009c0.61-0.154,1.154-0.501,1.661-0.863c1.062-0.78,2.006-1.738,2.892-2.71
			c4.585-5.182,8.074-11.31,10.765-17.663c0.655,1.425,1.6,2.921,2.127,4.4c0.392,1.074,0.604,2.215,0.661,3.356
			c0.085,1.703-0.134,3.441-0.378,5.125c-0.548,3.837-1.836,8.96-2.228,12.813c-0.047,0.664-0.099,1.353,0.059,2.005l0.009,0.033
			l0.01,0.032l0.01,0.032l0.01,0.031l0.011,0.03l0.011,0.029l0.012,0.028l0.012,0.027l0.013,0.026l0.013,0.026l0.014,0.025
			l0.014,0.024l0.014,0.023l0.015,0.022l0.015,0.021l0.016,0.02l0.016,0.019l0.017,0.018l0.017,0.017
			c0.172,0.169,0.426,0.199,0.656,0.206l0.365,0.006c0.181,0.007,0.369,0.025,0.533,0.109c0.127,0.064,0.23,0.171,0.297,0.295
			l0.015,0.029l0.015,0.031l0.014,0.032l0.014,0.033l0.013,0.035l0.012,0.036l0.012,0.037l0.011,0.039l0.011,0.04l0.01,0.041
			l0.009,0.042l0.009,0.044c0.099,0.554,0.069,1.128,0.031,1.687c-0.285,3.369-1.708,9.326-2.355,12.709
			c-0.352,1.875-0.734,3.833-0.829,5.74c-0.017,0.5-0.02,1.014,0.084,1.505l0.01,0.045l0.011,0.044l0.012,0.043l0.012,0.042
			l0.013,0.04l0.013,0.039l0.014,0.038l0.015,0.037l0.015,0.035l0.016,0.034l0.017,0.033c0.143,0.277,0.392,0.428,0.69,0.492
			c0.355,0.083,0.751,0.062,1.086,0.221c0.163,0.077,0.298,0.207,0.383,0.366l0.018,0.033l0.017,0.035l0.016,0.036l0.015,0.038
			l0.015,0.039l0.014,0.041l0.013,0.042l0.013,0.043l0.012,0.045l0.011,0.046l0.011,0.048l0.01,0.049
			c0.12,0.672,0.074,1.369,0.023,2.046c-0.523,4.89-2.016,10.663-2.559,15.545c-0.173,1.525-0.305,3.095-0.211,4.63
			c0.055,0.784,0.163,1.584,0.467,2.315l0.027,0.063l0.028,0.062l0.029,0.06l0.03,0.059l0.031,0.058l0.031,0.057l0.032,0.055
			l0.033,0.054l0.034,0.053l0.035,0.051l0.036,0.05l0.037,0.049l0.037,0.047c0.286,0.357,0.684,0.613,1.113,0.764
			c1.079,0.381,2.354,0.236,3.479,0.206c0.423-0.002,0.889-0.025,1.282,0.15l0.014,0.007l0.014,0.007l0.014,0.007l0.014,0.008
			l0.013,0.008l0.013,0.008l0.013,0.008l0.013,0.009l0.012,0.009l0.012,0.009l0.012,0.009l0.011,0.009l0.011,0.01l0.011,0.01
			l0.011,0.01l0.01,0.01l0.01,0.011l0.01,0.011l0.009,0.011l0.009,0.011l0.009,0.011l0.009,0.012l0.008,0.012l0.008,0.012
			l0.008,0.012l0.007,0.013l0.007,0.013l0.01,0.02l0.009,0.02l0.009,0.021l0.008,0.021l0.007,0.022l0.007,0.022l0.006,0.023
			l0.005,0.023l0.005,0.024l0.004,0.025l0.003,0.025l0.003,0.026l0.002,0.026l0.002,0.027l0.001,0.027l0,0.028l0,0.028l-0.001,0.029
			l-0.001,0.029l-0.002,0.03c-0.033,0.378-0.165,0.744-0.303,1.095c-0.981,2.271-2.724,4.825-3.841,7.031
			c-0.417,0.812-0.821,1.655-1.095,2.527c-0.143,0.471-0.258,0.964-0.236,1.459c0.018,0.396,0.158,0.785,0.397,1.101
			c0.444,0.6,1.198,0.991,1.814,1.388c0.396,0.258,0.808,0.542,1.042,0.964l0.013,0.024l0.012,0.024l0.012,0.025l0.012,0.025
			l0.011,0.025l0.011,0.025l0.01,0.025l0.01,0.026l0.009,0.026l0.009,0.026c0.186,0.576,0.051,1.197-0.141,1.754
			c-0.45,1.226-1.214,2.317-1.988,3.358c-4.238,5.493-12.346,12.628-17.339,17.556c-3.415,3.399-6.879,6.927-9.441,11.031
			c-1.776,2.828-3.07,5.965-4.115,9.128c-0.591,1.831-1.463,4.499-1.942,6.35c-0.222,0.883-0.431,1.797-0.5,2.706
			c-0.026,0.38-0.029,0.769,0.046,1.144c0.047,0.23,0.127,0.459,0.273,0.645l0.011,0.014l0.012,0.014l0.012,0.014l0.012,0.013
			l0.012,0.013l0.012,0.013l0.013,0.013l0.013,0.012l0.013,0.012l0.013,0.012l0.013,0.012l0.014,0.011l0.014,0.011
			c0.202,0.157,0.459,0.22,0.708,0.254c0.986,0.129,2.217-0.164,3.029,0.548l0.022,0.021l0.022,0.021l0.022,0.022l0.021,0.022
			l0.021,0.023l0.021,0.023l0.021,0.024c0.524,0.642,0.679,1.555,0.783,2.357c0.345,3.261-0.286,7.762-0.334,11.046
			c-0.078,2.226,0.313,4.621,0.666,6.819c0.258,1.704,0.313,3.457,0.216,5.176c-0.325,5.946-2.132,15.653-3.046,21.608
			c-0.356,2.287-0.609,4.64-0.462,6.955c0.094,1.349,0.325,2.72,0.914,3.948c0.474,0.986,1.22,1.873,2.207,2.372
			c1.358,0.677,2.935,0.684,4.42,0.729c0,0,28.749,0.011,28.749,0.011c0.279,0.004,1.072-0.005,1.342-0.008
			c0.28-0.007,0.654-0.017,0.932-0.039c0.577-0.045,1.168-0.126,1.696-0.377c0.564-0.262,0.998-0.737,1.315-1.263
			c0.542-0.901,0.842-1.933,1.005-2.966c0.282-1.76,0.051-3.569-0.488-5.259c-0.679-2.102-1.709-4.122-3.151-5.805
			c-0.399-0.461-0.844-0.904-1.3-1.309c-0.397-0.353-0.835-0.669-1.32-0.889c-0.774-0.357-1.634-0.498-2.473-0.608
			c-1.315-0.169-3.191-0.303-4.476-0.589c-0.457-0.101-0.914-0.233-1.342-0.423c-0.532-0.234-1.025-0.573-1.402-1.019
			c-0.42-0.491-0.699-1.089-0.899-1.699c-0.39-1.216-0.537-2.514-0.658-3.781c-0.298-3.197-0.348-7.834-0.458-11.078
			c-0.039-2.3-0.128-5.356-0.008-7.643c0.19-3.74,0.579-7.621,2.328-10.993c1.304-2.525,3.176-4.728,5.12-6.783
			c2.644-2.74,5.592-5.415,8.502-7.871c0.67,5.078,1.728,10.169,3.634,14.937c1.387,3.424,3.293,7.313,4.454,10.814
			c1.252,3.595,2.046,7.431,2.661,11.184c1.38,8.226,2.602,19.917,5.154,27.758c0.599,1.687,1.321,3.486,2.775,4.616
			c0.689,0.532,1.533,0.828,2.389,0.955c0.479,0.074,0.981,0.106,1.465,0.122c0.193,0.014,0.673,0.007,0.87,0.014
			c0,0,27.261-0.009,27.261-0.009c1.704-0.043,3.495-0.047,5.157-0.455c0.826-0.208,1.653-0.554,2.25-1.18
			c0.482-0.499,0.773-1.153,0.918-1.826c0.218-1.014,0.173-2.071,0.076-3.097c-0.204-1.935-0.647-3.854-1.246-5.704
			c-0.607-1.842-1.423-3.658-2.66-5.167c-0.46-0.549-0.969-1.078-1.571-1.472c-0.379-0.246-0.8-0.426-1.232-0.554
			c-0.549-0.163-1.13-0.262-1.697-0.343c-3.08-0.427-7.102-0.517-10.151-1.118c-0.879-0.192-1.782-0.46-2.483-1.047
			c-0.57-0.474-0.951-1.134-1.228-1.814c-0.31-0.758-0.523-1.58-0.721-2.373c-1.022-4.317-1.917-9.088-2.665-13.466
			c-0.464-2.96-1.083-6.439-1.338-9.417c-0.041-0.614-0.051-1.248,0.012-1.861c0.087-0.909,0.324-1.807,0.602-2.675
			c0.525-1.617,1.209-3.265,1.884-4.825c3.243-7.393,7.436-14.536,11.735-21.358c2.896-4.475,5.99-9.44,9.488-13.465
			c4.588-5.466,11.912-10.813,17.406-15.379c3.658-3.048,7.217-6.372,10.366-9.947c2.329-2.633,4.435-5.508,6.061-8.631
			c0.52-0.973,1.557-3.127,2.143-4.021c0.172-0.263,0.362-0.52,0.584-0.743c0.24-0.244,0.522-0.451,0.834-0.594
			c0.334-0.155,0.699-0.232,1.062-0.281l0.655-0.082c1.124-0.118,2.067-0.772,2.838-1.562c1.306-1.342,2.193-3.06,2.649-4.87
			c0.674-2.684,0.596-5.817,1.275-8.501c0.152-0.625,0.356-1.267,0.578-1.87c1.012-2.629,3.464-8.295,4.451-10.903
			c1.036,2.242,2.273,5.022,3.471,7.157c0.306,0.54,0.637,1.101,1.006,1.601c0.215,0.279,0.437,0.575,0.745,0.757l0.012,0.007
			l0.012,0.006l0.012,0.006l0.012,0.006l0.012,0.005l0.012,0.005l0.012,0.005l0.012,0.004l0.012,0.004l0.012,0.004l0.012,0.003
			l0.011,0.003l0.011,0.002l0.011,0.002l0.011,0.002l0.011,0.001l0.011,0.001l0.011,0.001l0.011,0l0.011,0l0.011,0l0.011-0.001
			l0.01-0.001l0.01-0.002l0.01-0.002l0.01-0.002l0.01-0.003l0.01-0.003l0.01-0.004l0.01-0.004l0.01-0.004l0.009-0.005l0.009-0.005
			l0.009-0.005l0.009-0.006l0.009-0.006l0.009-0.007l0.009-0.007l0.009-0.007l0.009-0.008l0.009-0.008l0.008-0.009l0.008-0.009
			l0.008-0.009l0.008-0.01l0.007-0.009l0.007-0.009l0.007-0.009l0.006-0.009l0.006-0.01c0.057-0.09,0.096-0.192,0.128-0.293
			c0.14-0.437,0.267-1.381,0.353-1.841c0.137-0.707,0.291-1.443,0.686-2.056c0.219-0.339,0.554-0.62,0.958-0.698l0.044-0.008
			l0.045-0.007l0.046-0.006l0.047-0.005l0.047-0.003l0.048-0.002l0.049-0.001l0.05,0l0.05,0.001l0.051,0.003l0.052,0.004
			l0.052,0.005l0.053,0.006l0.054,0.007l0.055,0.008c0.653,0.112,1.269,0.392,1.856,0.69c1.497,0.784,2.917,1.821,4.273,2.827
			c2.777,2.05,6.372,5.173,9.301,6.975c0.526,0.307,1.074,0.611,1.666,0.768l0.047,0.011l0.046,0.01l0.045,0.009l0.045,0.008
			l0.044,0.007l0.043,0.006l0.042,0.005l0.042,0.004l0.041,0.002l0.04,0.001l0.039,0l0.038-0.001l0.037-0.002l0.036-0.004
			l0.036-0.005l0.035-0.006l0.034-0.007l0.033-0.009l0.032-0.01l0.031-0.011l0.03-0.013l0.014-0.006l0.013-0.006l0.013-0.007
			l0.013-0.007l0.013-0.007l0.013-0.008l0.012-0.008l0.012-0.008l0.012-0.008l0.012-0.009l0.012-0.009l0.012-0.009l0.011-0.009
			l0.011-0.01l0.011-0.01l0.011-0.01l0.011-0.01l0.011-0.01l0.01-0.011l0.01-0.011l0.01-0.011c0.299-0.351,0.361-0.883,0.415-1.327
			c0.08-0.697,0.058-1.497,0.237-2.177c0.042-0.144,0.096-0.288,0.185-0.41l0.008-0.011l0.008-0.011l0.009-0.011l0.009-0.01
			l0.009-0.01l0.009-0.01l0.009-0.01l0.009-0.009l0.009-0.009l0.01-0.009l0.01-0.009l0.01-0.008l0.01-0.008l0.01-0.008l0.01-0.008
			l0.01-0.007l0.011-0.007l0.011-0.007l0.011-0.007l0.011-0.006l0.011-0.006l0.012-0.006l0.012-0.005l0.012-0.005l0.012-0.005
			l0.012-0.005l0.012-0.004l0.013-0.004l0.013-0.004l0.034-0.008l0.035-0.007l0.036-0.005l0.037-0.003l0.039-0.001l0.04,0.001
			l0.041,0.003l0.042,0.005l0.043,0.007l0.044,0.008l0.046,0.01l0.047,0.012l0.048,0.014l0.049,0.016l0.05,0.017l0.051,0.019
			l0.052,0.021l0.053,0.023l0.054,0.024c0.664,0.315,1.256,0.78,1.828,1.237c3.848,3.243,8.475,8.366,12.117,11.873
			c1.71,1.651,3.515,3.378,5.424,4.795c0.723,0.522,1.479,1.039,2.319,1.352l0.067,0.024l0.066,0.022l0.065,0.02l0.064,0.018
			l0.064,0.017l0.063,0.015l0.062,0.013l0.061,0.011l0.06,0.01l0.059,0.008l0.058,0.006l0.057,0.004l0.056,0.002l0.054,0
			l0.053-0.002c0.428-0.013,0.794-0.255,1.05-0.587c0.474-0.616,0.729-1.48,1.018-2.196c0.294-0.714,0.66-1.623,1.478-1.843
			l0.04-0.01l0.041-0.009l0.042-0.007l0.042-0.006l0.043-0.005l0.043-0.004l0.044-0.003l0.045-0.002l0.045-0.001l0.046,0
			l0.047,0.001l0.047,0.003l0.048,0.004l0.048,0.005l0.049,0.006l0.049,0.007l0.05,0.008c0.641,0.111,1.241,0.396,1.811,0.699
			c1.472,0.808,2.848,1.865,4.174,2.892c2.272,1.764,6.281,5.268,8.727,6.671c0.477,0.267,0.977,0.522,1.512,0.647l0.046,0.01
			l0.045,0.009l0.045,0.008l0.044,0.007l0.043,0.006l0.043,0.005l0.042,0.004l0.041,0.003l0.041,0.002l0.04,0
			c0.961,0.006,1.389-1.022,1.85-1.703c0.246-0.377,0.528-0.746,0.9-1.007c0.28-0.199,0.61-0.326,0.95-0.374l0.066-0.009
			l0.068-0.007l0.069-0.006l0.07-0.004l0.072-0.003l0.073-0.001l0.074,0.001l0.076,0.002l0.077,0.004
			c0.943,0.061,1.861,0.364,2.744,0.688c4.192,1.587,10.899,5.735,14.893,7.924c2.645,1.459,5.386,2.976,8.218,4.037
			c1.042,0.373,2.127,0.716,3.241,0.755l0.083,0.001l0.082,0l0.08-0.002l0.079-0.003l0.078-0.005l0.076-0.006l0.075-0.008
			l0.074-0.01l0.073-0.011l0.071-0.013l0.07-0.014l0.068-0.016l0.067-0.018l0.066-0.019l0.064-0.021l0.063-0.023l0.061-0.024
			l0.06-0.026l0.059-0.028l0.057-0.029c0.423-0.224,0.73-0.618,0.934-1.044c0.353-0.747,0.474-1.584,0.574-2.397
			c0.09-0.737,0.153-1.864,0.355-2.569c0.049-0.165,0.111-0.33,0.205-0.475l0.01-0.016l0.011-0.015l0.011-0.015l0.011-0.015
			l0.011-0.014l0.011-0.014l0.012-0.013l0.012-0.013l0.012-0.013l0.012-0.012l0.012-0.012l0.013-0.012l0.013-0.011l0.013-0.011
			l0.013-0.01l0.013-0.01l0.014-0.009l0.014-0.009l0.014-0.009l0.014-0.008l0.014-0.008l0.015-0.007l0.015-0.007l0.015-0.007
			l0.015-0.006l0.016-0.006l0.016-0.005l0.016-0.005l0.016-0.004l0.016-0.004l0.026-0.005l0.026-0.004l0.027-0.003l0.027-0.002
			l0.028-0.001l0.028,0l0.029,0.001l0.029,0.002l0.03,0.003l0.03,0.004l0.031,0.005l0.031,0.006l0.032,0.007l0.032,0.008
			l0.033,0.009l0.033,0.01l0.034,0.011l0.034,0.012l0.035,0.013c0.331,0.126,0.636,0.321,0.926,0.521
			c0.683,0.48,1.342,1.068,1.963,1.628c2.35,2.136,4.973,4.938,7.659,6.615c0.573,0.338,1.185,0.649,1.847,0.762l0.049,0.007
			l0.049,0.007l0.048,0.006l0.048,0.005l0.047,0.004l0.047,0.003l0.047,0.002l0.046,0.001l0.046,0l0.046-0.001l0.045-0.002
			l0.045-0.004l0.044-0.005l0.044-0.006l0.044-0.007l0.043-0.008l0.043-0.009l0.042-0.01l0.042-0.011l0.042-0.012l0.032-0.01
			l0.032-0.011l0.032-0.012l0.032-0.012l0.031-0.013l0.031-0.014l0.031-0.014l0.031-0.015l0.03-0.016l0.03-0.016l0.03-0.017
			l0.03-0.018l0.029-0.018l0.029-0.019l0.029-0.02l0.029-0.02l0.028-0.021l0.028-0.021c0.448-0.351,0.745-0.856,0.982-1.365
			c0.538-1.203,0.797-2.527,1.032-3.818c0.179-1.024,0.399-2.684,0.645-3.675c0.048-0.179,0.102-0.362,0.187-0.528l0.009-0.017
			l0.009-0.017l0.009-0.016l0.009-0.015l0.009-0.015l0.01-0.014l0.01-0.013l0.01-0.013l0.01-0.012l0.01-0.011l0.01-0.011l0.01-0.01
			l0.01-0.009l0.01-0.008l0.01-0.008l0.01-0.007l0.01-0.006l0.01-0.005l0.01-0.005l0.011-0.004l0.011-0.003l0.011-0.003l0.011-0.002
			l0.011-0.001l0.011-0.001l0.011,0l0.011,0.001l0.011,0.001l0.011,0.002l0.012,0.002l0.012,0.003l0.012,0.004l0.012,0.004
			l0.012,0.005l0.012,0.006l0.012,0.006l0.012,0.007l0.012,0.007l0.012,0.008l0.012,0.009l0.012,0.009l0.013,0.01l0.013,0.01
			l0.013,0.011l0.013,0.012l0.013,0.012l0.013,0.013c0.127,0.128,0.229,0.283,0.324,0.435c0.436,0.704,1.342,2.719,1.722,3.485
			c0.651,1.297,1.343,2.616,2.315,3.704c0.454,0.502,0.999,0.946,1.644,1.173c1.72,0.609,3.524-0.314,4.859-1.372
			c0.884-0.705,1.668-1.541,2.341-2.447c0.672-0.895,1.272-2.001,1.817-2.982c0.252-0.434,0.501-0.912,0.863-1.266
			c0.094-0.088,0.202-0.166,0.325-0.205l0.01-0.003l0.01-0.003l0.01-0.003l0.01-0.002l0.01-0.002l0.01-0.002l0.01-0.002l0.01-0.002
			c0.277-0.04,0.525,0.135,0.729,0.3c0.41,0.34,1.007,1.063,1.373,1.461c0.408,0.452,0.85,0.896,1.31,1.294
			C464.287,492.191,467.14,493.712,469.973,495.113z"/>
	</g>
</g>
</svg>
